<?xml version="1.0" encoding="iso-8859-1"?>
<!-- Generator: Adobe Illustrator 19.0.0, SVG Export Plug-In . SVG Version: 6.00 Build 0)  -->
<svg version="1.1" id="Layer_1" xmlns="http://www.w3.org/2000/svg" xmlns:xlink="http://www.w3.org/1999/xlink" x="0px" y="0px"
	 viewBox="0 0 511.988 511.988" style="enable-background:new 0 0 511.988 511.988;" xml:space="preserve">
<g>
	<g>
		<path d="M394.556,139.153c-0.538-1.61-1.278-3.09-2.149-4.46l-13.951,31.385l3.243-1.088
			C392.384,161.406,398.14,149.837,394.556,139.153z"/>
	</g>
</g>
<g>
	<g>
		<g>
			<path d="M172.538,156.112c0.044-0.192,0.087-0.381,0.13-0.572C172.624,155.733,172.58,155.924,172.538,156.112z"/>
			<path d="M180.468,121.206c0.017-0.077,0.034-0.15,0.05-0.22C180.502,121.056,180.485,121.129,180.468,121.206z"/>
			<path d="M173.069,153.773c4.486-19.744,6.669-29.356,7.399-32.567C179.4,125.904,175.622,142.534,173.069,153.773z"/>
			<path d="M180.518,120.986c0.034-0.149,0.064-0.281,0.09-0.398C180.581,120.706,180.551,120.839,180.518,120.986z"/>
			<path d="M172.667,155.54c0.13-0.572,0.264-1.161,0.401-1.767C172.937,154.354,172.803,154.943,172.667,155.54z"/>
			<path d="M180.712,120.131c0.013-0.056,0.023-0.1,0.03-0.133C180.735,120.031,180.725,120.075,180.712,120.131z"/>
			<path d="M180.608,120.588c0.011-0.046,0.021-0.091,0.03-0.133C180.629,120.497,180.619,120.542,180.608,120.588z"/>
			<path d="M346.067,209.379l-70.161-7.767l-35.583-68.975c19.289,21.491,43.82,48.823,45.17,50.326l17.134,1.896l19.014-42.774
				l-30.167,10.12l1.52-6.692c3.723-16.387-6.542-32.689-22.93-36.412c0,0-33.87-6.992-49.121-11.161
				c-13.538-3.699-35.584,1.739-40.202,22.068c-11.812,51.987-11.368,50.034-8.204,36.104c-5.328,23.451-13.7,60.303-26.383,116.127
				l0.071,0.016l-11.831,86.371L66.064,476.275c-6.593,11.352-2.736,25.9,8.618,32.494c11.353,6.594,25.9,2.736,32.494-8.618
				l20.64-35.538c-0.393-1.874-0.616-3.799-0.616-5.759c-0.001-12.475,8.188-23.071,19.471-26.707l31.19-53.701
				c1.557-2.681,2.574-5.641,2.995-8.712l11.904-86.903l16.765,3.809l23.804,54.125c18.864-42.439,25.233-56.768,35.201-79.194
				c-2.581-0.285-1.367-0.151-10.145-1.124c-18.737-2.075-30.451-16.518-32.738-25.634l-20.29-80.932
				c42.172,81.749,39.393,76.447,40.159,77.666c3.423,5.445,9.021,8.764,15.024,9.428c0.009,0.001,81.032,8.97,81.041,8.97
				c11.265,1.248,21.292-6.917,22.523-18.038C365.342,220.717,357.281,210.622,346.067,209.379z"/>
			<path d="M180.742,119.998C180.763,119.905,180.763,119.908,180.742,119.998L180.742,119.998z"/>
			<path d="M180.638,120.456c0.031-0.136,0.055-0.242,0.074-0.324C180.693,120.215,180.668,120.324,180.638,120.456z"/>
		</g>
	</g>
</g>
<g>
	<g>
		<path d="M292.951,358.443L260.789,430.8h12.249c10.147,0,19.051,5.414,23.98,13.503
			C294.145,359.008,292.951,358.443,292.951,358.443z"/>
	</g>
</g>
<g>
	<g>
		<circle cx="264.8" cy="45.041" r="45.041"/>
	</g>
</g>
<g>
	<g>
		<path d="M379.037,446.869c-7.006-2.161-14.437,1.766-16.598,8.772c-0.189,0.613-0.316,1.229-0.413,1.845
			c-0.048-0.016-0.092-0.036-0.14-0.052c-6.015-1.856-12.395,1.517-14.251,7.531c-1.523,4.938,0.481,10.117,4.575,12.843
			c-4.134,6.815-10.853,12.639-16.24,16.594c-1.062,0.78-1.482,2.167-1.035,3.407c0.447,1.239,1.655,2.037,2.971,1.961
			c19.488-1.132,32.021-6.796,32.021-6.796l-0.003-0.006c5.813-0.106,11.157-3.891,12.965-9.749c1.286-4.168,0.498-8.478-1.77-11.83
			c3.099-1.57,5.585-4.34,6.69-7.921C389.969,456.461,386.043,449.03,379.037,446.869z"/>
	</g>
</g>
<g>
	<g>
		<path d="M380.961,84.534c-5.985-2.662-12.992,0.035-15.652,6.02l-42.893,96.499l24.736,2.738l39.829-89.604
			C389.641,94.201,386.946,87.194,380.961,84.534z"/>
	</g>
</g>
<g>
	<g>
		<path d="M280.373,470.562c3.895-2.446,6.492-6.767,6.492-11.706c0-7.636-6.191-13.827-13.827-13.827H233.7
			c1.35-3.036,76.397-171.874,79.356-178.529l-24.737-2.738c-2.595,5.834-77.362,174.041-80.574,181.267h-52.49
			c-7.636,0-13.827,6.191-13.827,13.827c0,5.24,2.916,9.798,7.213,12.143l-10.431,32.857c-1.212,3.818,1.644,7.714,5.645,7.714
			h105.981v-26.963l8.226,26.963h27.236c4.005,0,6.856-3.901,5.645-7.714L280.373,470.562z"/>
	</g>
</g>
<g>
	<g>
		<path d="M449.128,456.132c0.178-3.329-1.208-6.376-3.51-8.44c2.005-1.74,3.333-4.254,3.486-7.114
			c0.299-5.594-3.993-10.372-9.587-10.672c-5.594-0.3-10.373,3.993-10.671,9.587c-0.027,0.489-0.006,0.969,0.037,1.444
			c-0.038-0.002-0.075-0.01-0.113-0.012c-4.803-0.257-8.905,3.428-9.163,8.231c-0.21,3.943,2.237,7.41,5.778,8.668
			c-1.797,5.82-5.694,11.386-8.951,15.318c-0.642,0.776-0.696,1.882-0.134,2.718c0.562,0.835,1.605,1.202,2.567,0.901
			c14.234-4.462,22.47-10.991,22.47-10.991l-0.003-0.003C445.62,464.608,448.877,460.811,449.128,456.132z"/>
	</g>
</g>
<g>
</g>
<g>
</g>
<g>
</g>
<g>
</g>
<g>
</g>
<g>
</g>
<g>
</g>
<g>
</g>
<g>
</g>
<g>
</g>
<g>
</g>
<g>
</g>
<g>
</g>
<g>
</g>
<g>
</g>
</svg>
