<svg id="Layer_5" enable-background="new 0 0 64 64" height="512" viewBox="0 0 64 64" width="512" xmlns="http://www.w3.org/2000/svg"><g><path d="m5 53h2v8h-2z"/><path d="m41 50c0-1.654-1.346-3-3-3h-32c-1.654 0-3 1.346-3 3v1h38z"/><path d="m17 61h2v-6h2v6h2v-8h-6z"/><path d="m9 61h2v-6h2v6h2v-8h-6z"/><path d="m24 26v-2-19c0-1.103-.897-2-2-2s-2 .897-2 2v34h4z"/><path d="m16 41c-.551 0-1 .449-1 1v3h14v-3c0-.551-.449-1-1-1z"/><path d="m25 61h2v-6h2v6h2v-8h-6z"/><path d="m59 21c0-1.654-1.346-3-3-3h-1v-1c0-1.654-1.346-3-3-3-1.151 0-2.183.653-2.69 1.704l-.398.824-.856-.324c-.985-.373-1.954-.217-2.734.31l-1.076.728-.429-1.226c-.422-1.206-1.554-2.016-2.817-2.016-1.408 0-2.642.999-2.933 2.376l-.222 1.048-1.031-.293c-.878-.251-1.454-.14-2.117.182l-.819.399-.474-.778c-.736-1.211-2.008-1.934-3.404-1.934-2.206 0-4 1.794-4 4v2.184c.314-.112.648-.184 1-.184z"/><path d="m33 61h2v-6h2v6h2v-8h-6z"/><path d="m30.158 39.925c.519.54.842 1.269.842 2.075v3h7c2.757 0 5 2.243 5 5v3h-2v4h11.469c1.51 0 2.79-1.13 2.977-2.628l2.453-25.372h-28.798zm18.842 13.075h3l.391-3.124 1.984.248-.391 3.124c-.124.999-.977 1.752-1.984 1.752h-3zm-4 0h2v2h-2zm-6-22h2v2h-2zm-4 0h2v2h-2zm-4 0h2v2h-2z"/><path d="m60 23h-33c-.551 0-1 .449-1 1v2c0 .551.449 1 1 1h33c.551 0 1-.449 1-1v-2c0-.551-.449-1-1-1z"/><circle cx="60" cy="9" r="3"/><circle cx="38" cy="7" r="3"/><circle cx="52" cy="5" r="4"/><circle cx="6" cy="33" r="3"/><circle cx="12" cy="20" r="4"/><circle cx="6" cy="10" r="3"/></g></svg>