<svg id="Capa_1" enable-background="new 0 0 512 512" height="512" viewBox="0 0 512 512" width="512" xmlns="http://www.w3.org/2000/svg"><g><path d="m330.534 152.464v-152.379h-30v152.463c4.897-1.057 9.972-1.627 15.181-1.627 5.079 0 10.035.537 14.819 1.543z"/><path d="m243.789 222.847c0-32.281 21.377-59.659 50.717-68.731h-293.66l3.654 70.148h239.289z"/><path d="m186.192 369.61c0-44.8 22.896-84.349 57.597-107.574v-7.772h-237.726l13.423 257.651h243.3c-46.119-30.577-76.594-82.945-76.594-142.305z"/><path d="m28.465 58.657h30.107v28.451h-30.107z"/><path d="m28.465.084h30.107v28.392h-30.107z"/><path d="m58.572 28.476h28.451v30.181h-28.451z"/><path d="m0 28.476h28.465v30.181h-28.465z"/><path d="m88.649 98.623h28.372v30h-28.372z"/><path d="m315.55 240.252c15.102 0 29.604 2.61 43.09 7.389v-24.794c0-23.669-19.256-42.926-42.925-42.926s-42.926 19.257-42.926 42.926v24.678c13.392-4.704 27.781-7.273 42.761-7.273z"/><path d="m415.908 385.149v-15.539c0-55.337-45.021-100.357-100.358-100.357s-100.357 45.021-100.357 100.357c0 78.096 63.535 141.631 141.63 141.631h155.177v-30c-52.985 0-96.092-43.107-96.092-96.092z"/></g></svg>