<svg id="Capa_1" enable-background="new 0 0 512 512" height="512" viewBox="0 0 512 512" width="512" xmlns="http://www.w3.org/2000/svg"><g><path d="m327.846 174.174h13.482v29.826h-29.507v79.87h90.014v-79.87h-30.507v-29.826h14.483c25.338 0 45.951-20.61 45.951-45.944v-128.23h-30v128.229c0 8.792-7.155 15.944-15.951 15.944h-14.483v-144.173h-30v144.174h-13.482c-8.796 0-15.952-7.152-15.952-15.944v-128.23h-30v128.229c0 25.334 20.614 45.945 45.952 45.945z"/><path d="m401.835 467v-153.13h-90.014v153.13c0 24.813 20.187 45 45.014 45 24.813 0 45-20.187 45-45z"/><path d="m219.379 473.458c13.617-21.635 21.427-49.181 21.427-75.577 0-26.685-7.997-49.409-23.125-65.714-11.3-12.179-26.108-20.096-42.659-23.005v-31.076h30.507v-80.131h-90.014v80.131h29.507v31.258c-16.148 3.048-30.587 10.89-41.659 22.823-15.128 16.305-23.125 39.029-23.125 65.714 0 26.396 7.81 53.942 21.427 75.577 15.642 24.855 36.545 38.542 58.856 38.542s43.215-13.687 58.858-38.542z"/><path d="m160.515 0c-24.813 0-45 20.187-45 45v122.956h90.014v-122.956c-.001-24.813-20.187-45-45.014-45z"/></g></svg>