<?xml version="1.0" encoding="iso-8859-1"?>
<!-- Generator: Adobe Illustrator 19.0.0, SVG Export Plug-In . SVG Version: 6.00 Build 0)  -->
<svg version="1.1" id="Capa_1" xmlns="http://www.w3.org/2000/svg" xmlns:xlink="http://www.w3.org/1999/xlink" x="0px" y="0px"
	 viewBox="0 0 478.923 478.923" style="enable-background:new 0 0 478.923 478.923;" xml:space="preserve">
<g>
	<g>
		<path d="M269.435,9.109c-11.936-11.936-31.376-11.936-43.312,0l-42.344,42.344l-7.032-7.032c-9.072-9.064-24.88-9.064-33.944,0
			l-97.368,97.376c-9.344,9.36-9.344,24.576,0,33.936l7.032,7.032l-42.344,42.344c-11.944,11.936-11.944,31.376,0,43.312
			c5.968,5.968,13.816,8.952,21.656,8.952s15.688-2.984,21.656-8.952l42.344-42.344l7.032,7.032
			c4.536,4.528,10.56,7.032,16.976,7.032s12.44-2.496,16.968-7.032l97.376-97.376c9.344-9.36,9.344-24.576,0-33.936l-7.04-7.032
			l42.344-42.344C281.379,40.485,281.379,21.045,269.435,9.109z M42.123,257.109c-5.704,5.704-14.984,5.704-20.688,0
			c-5.704-5.704-5.704-14.984,0-20.688l42.344-42.344l20.688,20.688L42.123,257.109z M222.803,124.421l-97.368,97.376
			c-3.016,3.032-8.288,3.032-11.312,0l-57.368-57.376c-3.12-3.12-3.12-8.192-0.008-11.312l97.376-97.376
			c3.016-3.032,8.288-3.032,11.312,0l57.368,57.376C225.923,116.229,225.923,121.301,222.803,124.421z M258.123,41.109
			l-42.344,42.344l-20.688-20.688l42.344-42.344c5.704-5.704,14.984-5.704,20.688,0S263.827,35.405,258.123,41.109z"/>
	</g>
</g>
<g>
	<g>
		<path d="M459.067,158.741l-37.632-37.632c-3.12-3.112-8.168-3.128-11.296-0.016l-128,127.336c-1.512,1.504-2.36,3.536-2.36,5.664
			s0.84,4.168,2.344,5.664l18.44,18.44L152.715,426.501c-5.768,5.768-8.936,13.44-8.936,21.656
			c0,16.872,13.728,30.608,30.608,30.608c8.192,0,15.896-3.192,21.688-9l147.768-148.288l18.28,18.28
			c1.56,1.56,3.608,2.344,5.656,2.344c2.04,0,4.08-0.776,5.64-2.328l85.536-85.064c12.856-12.8,19.944-29.832,19.968-47.968
			C478.947,188.605,471.891,171.565,459.067,158.741z M184.747,458.469c-2.768,2.776-6.448,4.296-10.36,4.296
			c-8.056,0-14.608-6.552-14.608-14.656c0-3.896,1.512-7.552,4.264-10.312l147.832-148.288l20.656,20.656L184.747,458.469z
			 M447.667,243.365l-79.872,79.44l-12.656-12.656l26.304-26.4l-11.336-11.296l-26.288,26.376l-20.656-20.656l50.272-50.432
			l-11.328-11.296l-50.256,50.416l-12.752-12.752l116.656-116.056l31.992,31.992c9.8,9.8,15.184,22.824,15.168,36.672
			C462.899,220.565,457.483,233.597,447.667,243.365z"/>
	</g>
</g>
<g>
	<g>
		<path d="M326.611,78.765c-11.696,0-22.88,5-30.68,13.72l-125.592,140.36l-46.72,35.04c-27.152-0.944-59.264,12.472-85.16,38.376
			c-37.608,37.6-49.008,88.32-28.08,117.88c0.056,0.088,0.072,0.192,0.128,0.28c0.064,0.088,0.136,0.144,0.192,0.232
			c1.528,2.112,3.2,4.128,5.072,6c0.016,0.016,0.032,0.04,0.048,0.056c0,0,0,0,0.008,0.008s0.016,0.016,0.024,0.024
			c1.112,1.112,2.328,2.176,3.6,3.216c0.512,0.416,1.032,0.816,1.552,1.208c0.384,0.288,0.728,0.592,1.128,0.88
			c0.112,0.08,0.256,0.112,0.376,0.192c9.848,6.936,22,10.36,35.272,10.36c26.568,0,57.456-13.456,82.504-38.496
			c25.904-25.92,39.336-58.04,38.384-85.2l35.024-46.688l140.376-125.592c8.712-7.808,13.712-18.992,13.712-30.688
			C367.779,97.237,349.307,78.765,326.611,78.765z M16.579,398.581c-4.48-23.624,7.648-55.464,33.2-81.008
			c22.064-22.064,48.832-34.136,70.936-34.136c1.704,0,3.304,0.248,4.952,0.392c0.528,0.048,1,0.184,1.52,0.24
			c-17.152,10.816-37.496,27.544-57.52,47.56C45.451,355.853,26.523,379.957,16.579,398.581z M27.147,419.397l-0.008-0.008
			c-0.552-0.552-1-1.184-1.512-1.768c4.064-14.032,23.384-42.712,55.344-74.68c23.736-23.736,48.504-43.112,65.928-51.728
			c1.6,1.136,3.2,2.272,4.608,3.664c0.024,0.024,0.056,0.048,0.088,0.072c0.104,0.104,0.184,0.24,0.288,0.344
			c1.288,1.32,2.44,2.76,3.504,4.256c-8.592,17.424-28.008,42.24-51.784,66.016c-31.968,31.968-60.648,51.272-74.68,55.344
			C28.339,420.397,27.707,419.957,27.147,419.397z M128.971,396.773c-25.544,25.544-57.384,37.664-81,33.192
			c18.624-9.944,42.728-28.872,66.952-53.088c20.024-20.016,36.744-40.368,47.56-57.52c0.056,0.52,0.192,0.984,0.24,1.52
			c0.032,0.344,0.168,0.656,0.24,0.992C164.515,344.677,152.379,373.365,128.971,396.773z M174.595,301.661
			c-0.8-2.032-1.736-3.976-2.744-5.864c-0.136-0.248-0.264-0.496-0.4-0.744c-0.016-0.024-0.032-0.048-0.048-0.072
			c-0.088-0.152-0.2-0.288-0.28-0.44c-0.864-1.52-1.8-2.984-2.808-4.4c-0.36-0.504-0.712-1.008-1.088-1.504
			c-1.344-1.752-2.76-3.44-4.32-5.008c0,0,0,0-0.008-0.008s-0.016-0.016-0.024-0.016c-1.56-1.552-3.24-2.96-4.984-4.296
			c-0.488-0.368-0.984-0.72-1.48-1.072c-1.416-1.008-2.888-1.944-4.408-2.816c-0.176-0.104-0.328-0.232-0.504-0.328
			c-0.008-0.008-0.016,0-0.024-0.008c-0.24-0.128-0.48-0.256-0.72-0.384c-1.888-1.016-3.84-1.96-5.88-2.76l30.152-22.616
			l22.184,22.184L174.595,301.661z M343.395,138.693L208.083,259.757l-21.296-21.296l121.064-135.304
			c4.768-5.336,11.608-8.392,18.76-8.392c13.88,0,25.168,11.288,25.168,25.168C351.779,127.085,348.723,133.917,343.395,138.693z"/>
	</g>
</g>
<g>
</g>
<g>
</g>
<g>
</g>
<g>
</g>
<g>
</g>
<g>
</g>
<g>
</g>
<g>
</g>
<g>
</g>
<g>
</g>
<g>
</g>
<g>
</g>
<g>
</g>
<g>
</g>
<g>
</g>
</svg>
