<?xml version="1.0" encoding="iso-8859-1"?>
<!-- Generator: Adobe Illustrator 21.0.0, SVG Export Plug-In . SVG Version: 6.00 Build 0)  -->
<svg xmlns="http://www.w3.org/2000/svg" xmlns:xlink="http://www.w3.org/1999/xlink" version="1.1" id="Capa_1" x="0px" y="0px" viewBox="0 0 511.573 511.573" style="enable-background:new 0 0 511.573 511.573;" xml:space="preserve" width="512" height="512">
<path d="M457.656,283.734c-12.53-16.243-12.658-38.168-0.318-54.558l29.195-38.773c2.962-3.933,3.805-9.067,2.256-13.741  c-1.548-4.673-5.291-8.288-10.015-9.675l-45.2-13.263c-19.685-5.775-32.676-23.438-32.324-43.951l0.829-48.529  c0.084-4.922-2.253-9.572-6.252-12.442c-4.001-2.87-9.155-3.594-13.789-1.94l-44.363,15.838  c-19.318,6.899-40.212,0.246-51.985-16.557L257.834,6.393c-4.756-6.784-14.108-8.43-20.893-3.676  c-4.158,2.914-6.375,7.557-6.382,12.277h-0.01c0,0,0,12.467,0.001,33.366l-16.088-16.088c-5.857-5.857-15.355-5.857-21.213,0  c-5.858,5.857-5.858,15.355,0,21.213l37.302,37.302c0,12.778,0.001,26.748,0.001,41.575l-29.787-29.787  c-5.857-5.857-15.355-5.857-21.213,0c-5.858,5.857-5.858,15.355,0,21.213l51.001,51.001c0,17.825,0.001,36.315,0.001,55.02  l-47.298-27.307l-18.817-70.227c-2.145-8.003-10.372-12.746-18.371-10.607c-8.002,2.145-12.751,10.369-10.607,18.371l11.052,41.249  l-36.071-20.826l-13.775-51.409c-2.145-8.002-10.373-12.747-18.371-10.607c-8.002,2.145-12.751,10.369-10.607,18.371l6.01,22.432  l-29.177-16.845c-7.175-4.144-16.349-1.684-20.49,5.49c-4.143,7.175-1.685,16.349,5.49,20.49l28.889,16.679l-21.977,5.889  c-8.002,2.144-12.75,10.369-10.606,18.371c1.796,6.701,7.856,11.121,14.479,11.121c1.285,0,2.592-0.167,3.893-0.515l50.953-13.654  l36.004,20.787l-40.687,10.902c-8.003,2.145-12.751,10.37-10.607,18.372c1.796,6.701,7.856,11.121,14.479,11.121  c1.285,0,2.592-0.167,3.893-0.515l69.665-18.667l47.648,27.51l-47.293,27.305l-70.226-18.817  c-7.998-2.137-16.228,2.604-18.372,10.606c-2.144,8.002,2.604,16.228,10.607,18.372l41.247,11.053L95.445,325.13l-51.41-13.776  c-7.998-2.137-16.228,2.604-18.372,10.607c-2.144,8.001,2.604,16.227,10.606,18.371l22.433,6.011l-29.177,16.845  c-7.175,4.142-9.633,13.315-5.49,20.49c2.778,4.813,7.82,7.502,13.004,7.502c2.545,0,5.124-0.648,7.486-2.012l28.887-16.678  l-5.888,21.976c-2.144,8.002,2.605,16.227,10.607,18.371c1.3,0.348,2.605,0.515,3.892,0.515c6.622,0,12.684-4.42,14.479-11.122  l13.653-50.953l36.004-20.787l-10.902,40.688c-2.144,8.002,2.605,16.227,10.607,18.371c1.3,0.348,2.605,0.515,3.892,0.515  c6.622,0,12.684-4.42,14.479-11.122l18.667-69.665l47.654-27.513c0,18.563,0.001,36.912,0.001,54.606l-51.417,51.416  c-5.857,5.857-5.858,15.355,0,21.213c2.929,2.93,6.768,4.394,10.606,4.394c3.838,0,7.678-1.465,10.606-4.394l30.205-30.205  c0,14.855,0.001,28.852,0.001,41.651l-37.644,37.644c-5.858,5.857-5.858,15.355,0,21.213c2.929,2.929,6.768,4.394,10.606,4.394  s7.678-1.465,10.606-4.394l16.433-16.433c0.001,20.877,0.001,33.333,0.001,33.342c-0.114,4.906,2.169,9.769,6.523,12.745  c2.589,1.77,5.534,2.617,8.45,2.617c4.787,0,9.492-2.286,12.397-6.537l26.581-38.89c11.576-16.936,32.391-23.833,51.789-17.161  l45.898,15.785c4.654,1.6,9.8,0.816,13.766-2.101s6.248-7.595,6.106-12.516l-1.354-47.085  c-0.591-20.507,12.193-38.319,31.811-44.325l46.41-14.208c4.707-1.441,8.408-5.101,9.902-9.791c1.493-4.69,0.591-9.815-2.416-13.714  L457.656,283.734z M260.55,167.043c42.511,7.163,75,44.227,75,88.743c0,44.113-32.621,81.479-75,88.727  C260.55,289.538,260.55,222.156,260.55,167.043z M423.749,330.058c-32.694,10.009-54.001,39.696-53.018,73.874l0.731,25.42  l-25.403-8.736c-31.896-10.969-66.07,0.08-85.51,27.478c0,0,0-29.994,0-73.242c26.855-3.341,51.646-15.578,70.804-35.174  c22.052-22.554,34.196-52.348,34.196-83.891c0-61.089-45.885-111.66-105-119.064c0-43.751,0-74.174,0-74.177  c-0.001,0.807,1.975,2.73,2.482,3.39c11.399,14.862,28.52,25.499,47.172,28.541c12.438,2.029,25.457,0.64,37.436-3.483  c8.056-2.773,16.049-5.727,24.072-8.591l-0.459,26.858c-0.585,34.188,21.065,63.624,53.874,73.251l24.403,7.16l-16.159,21.46  c-20.565,27.314-20.353,63.854,0.53,90.927l15.534,20.137L423.749,330.058z"/>















</svg>
