<svg id="Capa_1" enable-background="new 0 0 512 512" height="512" viewBox="0 0 512 512" width="512" xmlns="http://www.w3.org/2000/svg"><g><path d="m256 0c-108.075 0-196 87.925-196 196v316h392v-316c0-108.075-87.925-196-196-196zm166 482h-332v-286c0-91.533 74.467-166 166-166s166 74.467 166 166z"/><path d="m256 60c-74.991 0-136 61.009-136 136v256h272v-256c0-74.991-61.009-136-136-136zm15 31.066c18.037 2.566 34.628 9.684 48.562 20.159l-48.562 48.562zm-30 68.721-48.562-48.562c13.934-10.475 30.525-17.592 48.562-20.159zm-21.213 21.213h-68.721c2.566-18.037 9.684-34.628 20.159-48.562zm21.213 30v90.5h-91v-90.5zm30 0h91v90.5h-91zm21.213-30 48.562-48.562c10.474 13.935 17.592 30.525 20.159 48.562zm-142.213 150.5h91v90.5h-91zm121 90.5v-90.5h91v90.5z"/></g></svg>