<svg width="512" height="512" viewBox="0 0 512 512" fill="none" xmlns="http://www.w3.org/2000/svg">
<g clip-path="url(#clip0)">
<path d="M355.13 389.835C353.528 390.17 351.947 390.574 350.391 391.047C340.737 378.227 326.962 369.53 311.719 366.153L322.057 346.157L343.088 325.142C359.176 309.045 359.176 282.853 343.088 266.756L320.619 244.275L434.916 129.915C435.014 129.824 435.117 129.742 435.213 129.647C435.31 129.55 435.394 129.444 435.487 129.344L479.915 84.891C479.916 84.89 479.917 84.889 479.918 84.889C479.919 84.888 479.919 84.887 479.92 84.886L500.762 64.032C515.388 49.438 515.396 25.637 500.772 10.967C493.703 3.894 484.283 0 474.241 0C474.233 0 474.223 0 474.215 0C464.178 0.007 454.769 3.905 447.73 10.967L426.883 31.825C426.883 31.825 426.883 31.825 426.882 31.825L426.881 31.826L382.443 76.288C382.346 76.378 382.243 76.46 382.148 76.554C382.051 76.651 381.968 76.755 381.876 76.855L356.676 102.069C352.772 105.976 352.773 112.307 356.679 116.212C360.585 120.115 366.917 120.114 370.821 116.208L389.231 97.788L413.99 122.56L306.48 230.129L281.721 205.357L307.363 179.701C311.267 175.794 311.265 169.463 307.359 165.558C303.451 161.654 297.12 161.655 293.216 165.562L267.582 191.21L245.121 168.737C237.354 160.966 226.989 156.686 215.936 156.686C204.883 156.686 194.519 160.966 186.747 168.742L165.747 189.781L125.252 210.766C125.209 210.788 125.166 210.81 125.124 210.832L86.119 231.045C85.947 231.128 85.778 231.215 85.61 231.308L22.675 263.923C9.16302 270.918 1.84002 279.185 0.285019 289.198C-1.21898 298.887 3.18402 308.968 13.37 319.159L41.067 346.88C41.17 346.992 41.28 347.094 41.387 347.201L103.036 408.903L164.521 470.402C164.674 470.565 164.832 470.724 164.997 470.878L192.728 498.616C201.619 507.511 210.424 511.999 218.959 511.999C220.205 511.999 221.445 511.903 222.678 511.712C232.691 510.158 240.957 502.83 247.948 489.31L252.49 480.53C255.015 482.813 257.726 484.925 260.622 486.833C271.623 494.082 284.22 497.833 297.085 497.833C301.595 497.833 306.141 497.371 310.659 496.438C319.194 494.682 327.263 491.289 334.393 486.497C346.563 495.312 361.904 498.705 376.925 495.615C391.05 492.704 403.194 484.466 411.12 472.417C419.043 460.373 421.805 445.964 418.895 431.847C412.903 402.707 384.316 383.856 355.13 389.835V389.835ZM474.228 20H474.24C478.937 20 483.336 21.813 486.617 25.096C493.45 31.951 493.459 43.067 486.626 49.885L472.848 63.67L448.089 38.898L461.884 25.095C465.157 21.813 469.54 20.003 474.228 20V20ZM403.371 83.641L433.951 53.044L458.71 77.816L428.129 108.413L403.371 83.641ZM249.411 384.911L107.217 242.64L127.931 231.906L267.541 371.592C260.694 375.007 254.589 379.539 249.411 384.911V384.911ZM169.83 210.191L301.648 342.082L289.79 365.02C289.628 365.038 289.466 365.056 289.304 365.075L146.559 222.251L169.83 210.191ZM200.899 182.876C204.888 178.885 210.229 176.687 215.938 176.687C221.646 176.687 226.987 178.885 230.977 182.876L328.942 280.894C337.239 289.195 337.239 302.703 328.947 310.999L313.894 326.041L185.863 197.94L200.899 182.876ZM230.186 480.123C226.547 487.161 222.693 491.472 219.614 491.949C216.711 492.404 212.071 489.676 206.875 484.477L184.065 461.661L205.906 419.501C208.447 414.597 206.531 408.562 201.627 406.022C196.722 403.482 190.688 405.397 188.148 410.301L169.229 446.821L124.269 401.85L155.922 370.087C159.82 366.175 159.809 359.843 155.897 355.945C151.985 352.047 145.653 352.057 141.755 355.97L110.131 387.704L65.147 342.681L101.656 323.746C106.559 321.204 108.472 315.168 105.929 310.265C103.387 305.363 97.349 303.448 92.448 305.992L50.32 327.841L27.521 305.022C22.323 299.822 19.601 295.172 20.052 292.266C20.531 289.183 24.839 285.326 31.877 281.683L88.59 252.293L237.707 401.492C231.26 414.389 228.906 429.449 232.025 444.644C233.393 451.273 235.716 457.545 238.881 463.316L230.186 480.123ZM394.416 461.426C389.427 469.01 381.783 474.196 372.896 476.027C361.574 478.36 349.957 474.834 341.823 466.604C338.085 462.822 332.04 462.626 328.065 466.162C322.057 471.505 314.645 475.202 306.624 476.852C294.448 479.367 282.02 476.981 271.629 470.135C261.236 463.287 254.127 452.799 251.612 440.614C246.441 415.422 262.699 390.722 287.854 385.553C287.855 385.553 287.856 385.553 287.858 385.552C291.024 384.9 294.192 384.584 297.327 384.584C313.862 384.584 329.386 393.393 337.794 408.238C340.411 412.858 346.183 414.627 350.939 412.268C353.536 410.98 356.323 410.019 359.184 409.421C377.533 405.665 395.534 417.532 399.311 435.885C401.143 444.772 399.405 453.844 394.416 461.426V461.426Z" fill="white"/>
<path d="M477.24 421.937C458.057 421.937 442.451 437.537 442.451 456.711C442.451 475.901 458.057 491.513 477.24 491.513C496.407 491.513 512 475.901 512 456.711C512 437.537 496.407 421.937 477.24 421.937ZM477.24 471.513C469.085 471.513 462.451 464.873 462.451 456.711C462.451 448.565 469.085 441.937 477.24 441.937C485.379 441.937 492 448.564 492 456.711C492 464.873 485.378 471.513 477.24 471.513Z" fill="white"/>
<path d="M474.774 315.579C474.774 291.513 455.203 271.933 431.146 271.933C407.105 271.933 387.547 291.513 387.547 315.579C387.547 339.645 407.106 359.225 431.146 359.225C455.203 359.225 474.774 339.645 474.774 315.579ZM431.146 339.225C418.133 339.225 407.547 328.618 407.547 315.579C407.547 302.54 418.133 291.933 431.146 291.933C444.174 291.933 454.774 302.54 454.774 315.579C454.774 328.618 444.175 339.225 431.146 339.225Z" fill="white"/>
<path d="M331.999 150.893C334.566 150.893 337.135 149.913 339.091 147.957C342.996 144.052 342.996 137.72 339.091 133.814C335.186 129.909 328.854 129.909 324.948 133.814L324.92 133.842C321.015 137.747 321.029 144.065 324.934 147.97C326.884 149.92 329.44 150.893 331.999 150.893V150.893Z" fill="white"/>
</g>
<defs>
<clipPath id="clip0">
<rect width="512" height="512" fill="white"/>
</clipPath>
</defs>
</svg>
