<svg width="512" height="512" viewBox="0 0 512 512" fill="none" xmlns="http://www.w3.org/2000/svg">
<path d="M166.012 29.9977C174.295 29.9977 181.01 23.2822 181.01 14.9989C181.01 6.71549 174.295 0 166.012 0H76.0184C67.735 0 61.0195 6.71549 61.0195 14.9989C61.0195 23.2822 67.735 29.9977 76.0184 29.9977H166.012Z" fill="white"/>
<path d="M0.0239258 74.9945C0.0239258 83.2778 6.73941 89.9933 15.0228 89.9933H106.016C114.299 89.9933 121.015 83.2778 121.015 74.9945C121.015 66.7111 114.299 59.9956 106.016 59.9956H15.0228C6.73941 59.9956 0.0239258 66.7111 0.0239258 74.9945V74.9945Z" fill="white"/>
<path d="M257.088 468.031C257.093 468.026 257.098 468.02 257.103 468.014C257.109 468.008 257.115 468.004 257.121 467.998L345.392 379.171C373.967 397.514 413.067 394.749 438.81 369.005L481.233 326.582C522.168 285.646 522.168 219.037 481.233 178.102L353.963 50.8313C313.027 9.89543 246.419 9.89543 205.482 50.8313L163.06 93.2541C136.96 119.353 134.334 159.444 153.978 188.331L114.617 227.692L111.12 167.725C109.905 144.327 90.6272 125.072 66.1841 125.072C41.9 125.072 22.1965 144.245 21.2255 168.229L0.927072 345.649C-4.06955 391.071 11.6193 435.678 43.9718 468.031C102.6 526.659 198.465 526.654 257.088 468.031V468.031ZM184.271 114.466L226.694 72.0427C255.934 42.8029 303.511 42.8029 332.752 72.0427L460.021 199.312C489.261 228.553 489.261 276.13 460.021 305.37L417.598 347.793C403.915 361.476 383.798 364.415 367.376 357.048L416.174 307.943C424.674 299.444 429.354 288.144 429.354 276.125C429.354 264.106 424.674 252.807 416.174 244.309C412.094 240.228 407.367 237.027 402.227 234.803C412.028 217.626 409.606 195.317 394.963 180.674C390.822 176.533 386.064 173.383 380.986 171.196C390.808 154.013 388.404 131.692 373.752 117.039C358.966 102.253 336.652 99.9966 319.59 109.792C317.404 104.718 314.255 99.9646 310.118 95.8269C292.573 78.2832 264.026 78.2832 246.482 95.8269L175.856 166.453C167.525 149.879 169.976 128.76 184.271 114.466V114.466ZM30.7378 348.994C52.4381 159.118 51.1562 170.983 51.1892 169.698C51.3862 161.612 57.9867 155.07 66.1831 155.07C74.1295 155.07 80.744 161.246 81.167 169.377L86.6165 262.805C86.9605 268.703 90.7352 273.849 96.2568 275.95C101.778 278.051 108.019 276.715 112.196 272.537L267.693 117.04C273.542 111.194 283.058 111.193 288.904 117.04C294.751 122.888 294.752 132.4 288.908 138.249C278.184 148.973 223.024 204.133 204.059 223.098C198.201 228.956 198.201 238.452 204.059 244.31C209.915 250.167 219.411 250.167 225.27 244.31C264.769 204.811 292.275 177.306 331.328 138.252C337.191 132.389 346.677 132.389 352.539 138.252C358.387 144.1 358.387 153.615 352.539 159.463C345.501 166.501 253.772 258.23 246.481 265.521C240.624 271.377 240.624 280.875 246.481 286.732C252.338 292.59 261.835 292.59 267.693 286.732C299.056 255.369 322.884 231.542 352.539 201.886C358.403 196.023 367.888 196.024 373.751 201.886C379.611 207.747 379.613 217.235 373.751 223.097L288.904 307.944C283.047 313.8 283.046 323.298 288.904 329.155C294.761 335.013 304.258 335.013 310.116 329.155L373.751 265.52C379.599 259.671 389.115 259.671 394.963 265.52C400.731 271.289 400.928 280.766 394.93 286.765C359.43 322.261 280.012 402.165 235.865 446.83C188.803 493.879 112.241 493.875 65.1832 446.819C39.3011 420.936 26.7491 385.257 30.7378 348.994V348.994Z" fill="white"/>
<path d="M496.986 29.9977H481.988V14.9989C481.988 6.71549 475.272 0 466.989 0C458.705 0 451.99 6.71549 451.99 14.9989V29.9977H436.991C428.708 29.9977 421.992 36.7132 421.992 44.9966C421.992 53.2799 428.708 59.9954 436.991 59.9954H451.99V74.9943C451.99 83.2777 458.705 89.9931 466.989 89.9931C475.272 89.9931 481.988 83.2777 481.988 74.9943V59.9954H496.986C505.27 59.9954 511.985 53.2799 511.985 44.9966C511.985 36.7132 505.27 29.9977 496.986 29.9977Z" fill="white"/>
<path d="M420.992 466.964C420.992 458.681 414.277 451.965 405.993 451.965H390.994V436.967C390.994 428.683 384.279 421.968 375.996 421.968C367.712 421.968 360.997 428.683 360.997 436.967V451.965H345.998C337.715 451.965 330.999 458.681 330.999 466.964C330.999 475.248 337.715 481.963 345.998 481.963H360.997V496.962C360.997 505.245 367.712 511.961 375.996 511.961C384.279 511.961 390.994 505.245 390.994 496.962V481.963H405.993C414.277 481.963 420.992 475.248 420.992 466.964Z" fill="white"/>
</svg>
