<svg width="512" height="512" viewBox="0 0 512 512" fill="none" xmlns="http://www.w3.org/2000/svg">
<g clip-path="url(#clip0)">
<path d="M469.784 284.22L471.949 258.246C472.298 254.066 470.88 249.931 468.039 246.844C465.198 243.756 461.194 242 457 242H257C252.806 242 248.802 243.756 245.962 246.843C243.121 249.93 241.703 254.065 242.052 258.245L244.217 284.219C219.881 291.141 202 313.552 202 340.077C202 380.976 224.055 416.816 256.893 436.344L260.523 479.908C262.024 497.903 277.345 512 295.402 512H418.597C436.655 512 451.975 497.903 453.476 479.907L457.106 436.344C489.945 416.815 512 380.976 512 340.077C512 313.552 494.119 291.141 469.784 284.22V284.22ZM232 340.077C232 329.392 238.002 320.084 246.81 315.34L253.474 395.305C240.145 380.729 232 361.338 232 340.077V340.077ZM423.58 477.415C423.366 479.986 421.177 482 418.598 482H295.402C292.823 482 290.633 479.986 290.42 477.416L288.05 448.976C296.358 450.95 305.02 452 313.923 452H400.077C408.98 452 417.642 450.949 425.95 448.976L423.58 477.415ZM428.626 416.859C419.731 420.177 410.114 422 400.077 422H313.923C303.886 422 294.268 420.177 285.374 416.859L273.302 272H440.698L428.626 416.859ZM460.527 395.306L467.191 315.34C475.999 320.083 482.001 329.391 482.001 340.077C482 361.338 473.855 380.73 460.527 395.306Z" fill="white"/>
<path d="M190 407V377C190 355.625 175.014 337.695 155 333.134V317C155 297.445 142.459 280.772 125 274.58V15C125 6.716 118.284 0 110 0C101.716 0 94.9999 6.716 94.9999 15V274.58C77.5409 280.772 64.9999 297.445 64.9999 317V333.134C44.9859 337.695 29.9999 355.625 29.9999 377V407C29.9999 436.019 20.4109 464.786 2.9999 488C-0.409101 492.545 -0.957101 498.626 1.5839 503.708C4.1239 508.79 9.3179 512 14.9999 512H205C210.682 512 215.876 508.79 218.416 503.708C220.957 498.626 220.409 492.545 217 488C199.589 464.786 190 436.019 190 407ZM94.9999 317C94.9999 308.729 101.729 302 110 302C118.271 302 125 308.729 125 317V332H94.9999V317ZM99.7769 482L108.444 451.045C110.678 443.067 106.021 434.789 98.0439 432.556C90.0659 430.322 81.7889 434.979 79.5549 442.956L68.6229 482H41.9319C53.6929 458.871 59.9999 433.019 59.9999 407V377C59.9999 368.729 66.7289 362 74.9999 362H145C153.271 362 160 368.729 160 377V407C160 433.019 166.307 458.871 178.068 482H99.7769Z" fill="white"/>
<path d="M302 167C302 197.327 326.673 222 357 222C369.983 222 382.199 217.501 391.941 209.365C396.745 211.105 401.815 212 407 212C431.813 212 452 191.813 452 167C452 142.187 431.813 122 407 122C401.815 122 396.745 122.896 391.941 124.635C382.198 116.498 369.983 112 357 112C326.673 112 302 136.673 302 167ZM357 142C364.855 142 372.124 145.699 376.942 152.148C379.335 155.35 382.907 157.464 386.864 158.023C390.827 158.585 394.841 157.537 398.024 155.121C399.9 153.698 402.981 152.001 407 152.001C415.271 152.001 422 158.73 422 167.001C422 175.272 415.271 182.001 407 182.001C402.981 182.001 399.9 180.304 398.024 178.881C394.84 176.466 390.827 175.421 386.864 175.979C382.906 176.537 379.335 178.652 376.942 181.854C372.124 188.301 364.855 192 357 192C343.215 192 332 180.785 332 167C332 153.215 343.215 142 357 142Z" fill="white"/>
<path d="M297 90C321.813 90 342 69.813 342 45C342 20.187 321.813 0 297 0C272.187 0 252 20.187 252 45C252 69.813 272.187 90 297 90ZM297 30C305.271 30 312 36.729 312 45C312 53.271 305.271 60 297 60C288.729 60 282 53.271 282 45C282 36.729 288.729 30 297 30Z" fill="white"/>
</g>
<defs>
<clipPath id="clip0">
<rect width="512" height="512" fill="white"/>
</clipPath>
</defs>
</svg>
