<svg width="512" height="512" viewBox="0 0 512 512" fill="none" xmlns="http://www.w3.org/2000/svg">
<g clip-path="url(#clip0)">
<path d="M394.556 139.153C394.018 137.543 393.278 136.063 392.407 134.693L378.456 166.078L381.699 164.99C392.384 161.406 398.14 149.837 394.556 139.153Z" fill="white"/>
<path d="M172.538 156.112C172.582 155.92 172.625 155.731 172.668 155.54C172.624 155.733 172.58 155.924 172.538 156.112Z" fill="white"/>
<path d="M180.468 121.206C180.485 121.129 180.502 121.056 180.518 120.986C180.502 121.056 180.485 121.129 180.468 121.206Z" fill="white"/>
<path d="M173.069 153.773C177.555 134.029 179.738 124.417 180.468 121.206C179.4 125.904 175.622 142.534 173.069 153.773Z" fill="white"/>
<path d="M180.518 120.986C180.552 120.837 180.582 120.705 180.608 120.588C180.581 120.706 180.551 120.839 180.518 120.986Z" fill="white"/>
<path d="M172.667 155.54C172.797 154.968 172.931 154.379 173.068 153.773C172.937 154.354 172.803 154.943 172.667 155.54Z" fill="white"/>
<path d="M180.712 120.131C180.725 120.075 180.735 120.031 180.742 119.998C180.735 120.031 180.725 120.075 180.712 120.131Z" fill="white"/>
<path d="M180.608 120.588C180.619 120.542 180.629 120.497 180.638 120.455C180.629 120.497 180.619 120.542 180.608 120.588Z" fill="white"/>
<path d="M346.067 209.379L275.906 201.612L240.323 132.637C259.612 154.128 284.143 181.46 285.493 182.963L302.627 184.859L321.641 142.085L291.474 152.205L292.994 145.513C296.717 129.126 286.452 112.824 270.064 109.101C270.064 109.101 236.194 102.109 220.943 97.9398C207.405 94.2408 185.359 99.6788 180.741 120.008C168.929 171.995 169.373 170.042 172.537 156.112C167.209 179.563 158.837 216.415 146.154 272.239L146.225 272.255L134.394 358.626L66.0639 476.275C59.4709 487.627 63.3279 502.175 74.6819 508.769C86.0349 515.363 100.582 511.505 107.176 500.151L127.816 464.613C127.423 462.739 127.2 460.814 127.2 458.854C127.199 446.379 135.388 435.783 146.671 432.147L177.861 378.446C179.418 375.765 180.435 372.805 180.856 369.734L192.76 282.831L209.525 286.64L233.329 340.765C252.193 298.326 258.562 283.997 268.53 261.571C265.949 261.286 267.163 261.42 258.385 260.447C239.648 258.372 227.934 243.929 225.647 234.813L205.357 153.881C247.529 235.63 244.75 230.328 245.516 231.547C248.939 236.992 254.537 240.311 260.54 240.975C260.549 240.976 341.572 249.945 341.581 249.945C352.846 251.193 362.873 243.028 364.104 231.907C365.342 220.717 357.281 210.622 346.067 209.379Z" fill="white"/>
<path d="M180.742 119.998C180.763 119.905 180.763 119.908 180.742 119.998V119.998Z" fill="white"/>
<path d="M180.638 120.456C180.669 120.32 180.693 120.214 180.712 120.132C180.693 120.215 180.668 120.324 180.638 120.456Z" fill="white"/>
<path d="M292.951 358.443L260.789 430.8H273.038C283.185 430.8 292.089 436.214 297.018 444.303C294.145 359.008 292.951 358.443 292.951 358.443Z" fill="white"/>
<path d="M264.8 90.082C289.675 90.082 309.841 69.9165 309.841 45.041C309.841 20.1655 289.675 0 264.8 0C239.925 0 219.759 20.1655 219.759 45.041C219.759 69.9165 239.925 90.082 264.8 90.082Z" fill="white"/>
<path d="M379.037 446.869C372.031 444.708 364.6 448.635 362.439 455.641C362.25 456.254 362.123 456.87 362.026 457.486C361.978 457.47 361.934 457.45 361.886 457.434C355.871 455.578 349.491 458.951 347.635 464.965C346.112 469.903 348.116 475.082 352.21 477.808C348.076 484.623 341.357 490.447 335.97 494.402C334.908 495.182 334.488 496.569 334.935 497.809C335.382 499.048 336.59 499.846 337.906 499.77C357.394 498.638 369.927 492.974 369.927 492.974L369.924 492.968C375.737 492.862 381.081 489.077 382.889 483.219C384.175 479.051 383.387 474.741 381.119 471.389C384.218 469.819 386.704 467.049 387.809 463.468C389.969 456.461 386.043 449.03 379.037 446.869Z" fill="white"/>
<path d="M380.961 84.5338C374.976 81.8718 367.969 84.5688 365.309 90.5538L322.416 187.053L347.152 189.791L386.981 100.187C389.641 94.2008 386.946 87.1938 380.961 84.5338Z" fill="white"/>
<path d="M280.373 470.562C284.268 468.116 286.865 463.795 286.865 458.856C286.865 451.22 280.674 445.029 273.038 445.029H233.7C235.05 441.993 310.097 273.155 313.056 266.5L288.319 263.762C285.724 269.596 210.957 437.803 207.745 445.029H155.255C147.619 445.029 141.428 451.22 141.428 458.856C141.428 464.096 144.344 468.654 148.641 470.999L138.21 503.856C136.998 507.674 139.854 511.57 143.855 511.57H249.836V484.607L258.062 511.57H285.298C289.303 511.57 292.154 507.669 290.943 503.856L280.373 470.562Z" fill="white"/>
<path d="M449.128 456.132C449.306 452.803 447.92 449.756 445.618 447.692C447.623 445.952 448.951 443.438 449.104 440.578C449.403 434.984 445.111 430.206 439.517 429.906C433.923 429.606 429.144 433.899 428.846 439.493C428.819 439.982 428.84 440.462 428.883 440.937C428.845 440.935 428.808 440.927 428.77 440.925C423.967 440.668 419.865 444.353 419.607 449.156C419.397 453.099 421.844 456.566 425.385 457.824C423.588 463.644 419.691 469.21 416.434 473.142C415.792 473.918 415.738 475.024 416.3 475.86C416.862 476.695 417.905 477.062 418.867 476.761C433.101 472.299 441.337 465.77 441.337 465.77L441.334 465.767C445.62 464.608 448.877 460.811 449.128 456.132Z" fill="white"/>
</g>
<defs>
<clipPath id="clip0">
<rect width="511.988" height="511.988" fill="white"/>
</clipPath>
</defs>
</svg>
