<svg width="512" height="512" viewBox="0 0 512 512" fill="none" xmlns="http://www.w3.org/2000/svg">
<path d="M40 424H56V488H40V424Z" fill="white"/>
<path d="M328 400C328 386.768 317.232 376 304 376H48C34.768 376 24 386.768 24 400V408H328V400Z" fill="white"/>
<path d="M136 488H152V440H168V488H184V424H136V488Z" fill="white"/>
<path d="M72 488H88V440H104V488H120V424H72V488Z" fill="white"/>
<path d="M192 208V192V40C192 31.176 184.824 24 176 24C167.176 24 160 31.176 160 40V312H192V208Z" fill="white"/>
<path d="M128 328C123.592 328 120 331.592 120 336V360H232V336C232 331.592 228.408 328 224 328H128Z" fill="white"/>
<path d="M200 488H216V440H232V488H248V424H200V488Z" fill="white"/>
<path d="M472 168C472 154.768 461.232 144 448 144H440V136C440 122.768 429.232 112 416 112C406.792 112 398.536 117.224 394.48 125.632L391.296 132.224L384.448 129.632C376.568 126.648 368.816 127.896 362.576 132.112L353.968 137.936L350.536 128.128C347.16 118.48 338.104 112 328 112C316.736 112 306.864 119.992 304.536 131.008L302.76 139.392L294.512 137.048C287.488 135.04 282.88 135.928 277.576 138.504L271.024 141.696L267.232 135.472C261.344 125.784 251.168 120 240 120C222.352 120 208 134.352 208 152V169.472C210.512 168.576 213.184 168 216 168H472Z" fill="white"/>
<path d="M264 488H280V440H296V488H312V424H264V488Z" fill="white"/>
<path d="M241.264 319.4C245.416 323.72 248 329.552 248 336V360H304C326.056 360 344 377.944 344 400V424H328V456H419.752C431.832 456 442.072 446.96 443.568 434.976L463.192 232H232.808L241.264 319.4ZM392 424H416L419.128 399.008L435 400.992L431.872 425.984C430.88 433.976 424.056 440 416 440H392V424ZM360 424H376V440H360V424ZM312 248H328V264H312V248ZM280 248H296V264H280V248ZM248 248H264V264H248V248Z" fill="white"/>
<path d="M480 184H216C211.592 184 208 187.592 208 192V208C208 212.408 211.592 216 216 216H480C484.408 216 488 212.408 488 208V192C488 187.592 484.408 184 480 184Z" fill="white"/>
<path d="M480 96C493.255 96 504 85.2548 504 72C504 58.7452 493.255 48 480 48C466.745 48 456 58.7452 456 72C456 85.2548 466.745 96 480 96Z" fill="white"/>
<path d="M304 80C317.255 80 328 69.2548 328 56C328 42.7452 317.255 32 304 32C290.745 32 280 42.7452 280 56C280 69.2548 290.745 80 304 80Z" fill="white"/>
<path d="M416 72C433.673 72 448 57.6731 448 40C448 22.3269 433.673 8 416 8C398.327 8 384 22.3269 384 40C384 57.6731 398.327 72 416 72Z" fill="white"/>
<path d="M48 288C61.2548 288 72 277.255 72 264C72 250.745 61.2548 240 48 240C34.7452 240 24 250.745 24 264C24 277.255 34.7452 288 48 288Z" fill="white"/>
<path d="M96 192C113.673 192 128 177.673 128 160C128 142.327 113.673 128 96 128C78.3269 128 64 142.327 64 160C64 177.673 78.3269 192 96 192Z" fill="white"/>
<path d="M48 104C61.2548 104 72 93.2548 72 80C72 66.7452 61.2548 56 48 56C34.7452 56 24 66.7452 24 80C24 93.2548 34.7452 104 48 104Z" fill="white"/>
</svg>
