<svg width="512" height="512" viewBox="0 0 512 512" fill="none" xmlns="http://www.w3.org/2000/svg">
<path d="M330.534 152.464V0.0849609H300.534V152.548C305.431 151.491 310.506 150.921 315.715 150.921C320.794 150.921 325.75 151.458 330.534 152.464Z" fill="white"/>
<path d="M243.789 222.847C243.789 190.566 265.166 163.188 294.506 154.116H0.846191L4.50019 224.264H243.789V222.847Z" fill="white"/>
<path d="M186.192 369.61C186.192 324.81 209.088 285.261 243.789 262.036V254.264H6.06299L19.486 511.915H262.786C216.667 481.338 186.192 428.97 186.192 369.61V369.61Z" fill="white"/>
<path d="M28.4648 58.6572H58.5718V87.1082H28.4648V58.6572Z" fill="white"/>
<path d="M28.4648 0.0839844H58.5718V28.476H28.4648V0.0839844Z" fill="white"/>
<path d="M58.5718 28.4761H87.0228V58.6571H58.5718V28.4761Z" fill="white"/>
<path d="M0 28.4761H28.465V58.6571H0V28.4761Z" fill="white"/>
<path d="M88.6489 98.623H117.021V128.623H88.6489V98.623Z" fill="white"/>
<path d="M315.55 240.252C330.652 240.252 345.154 242.862 358.64 247.641V222.847C358.64 199.178 339.384 179.921 315.715 179.921C292.046 179.921 272.789 199.178 272.789 222.847V247.525C286.181 242.821 300.57 240.252 315.55 240.252V240.252Z" fill="white"/>
<path d="M415.908 385.149V369.61C415.908 314.273 370.887 269.253 315.55 269.253C260.213 269.253 215.193 314.274 215.193 369.61C215.193 447.706 278.728 511.241 356.823 511.241H512V481.241C459.015 481.241 415.908 438.134 415.908 385.149Z" fill="white"/>
</svg>
