<svg width="512" height="512" viewBox="0 0 512 512" fill="none" xmlns="http://www.w3.org/2000/svg">
<path d="M376 102.153H136C127.716 102.153 121 108.869 121 117.153V394.847C121 403.131 127.716 409.847 136 409.847H376C384.284 409.847 391 403.131 391 394.847V117.153C391 108.869 384.284 102.153 376 102.153V102.153ZM361 379.847H151V132.153H361V379.847Z" fill="white"/>
<path d="M451 15C451 6.716 444.284 0 436 0C427.716 0 421 6.716 421 15V42.153H391V15C391 6.716 384.284 0 376 0C367.716 0 361 6.716 361 15V42.153H331V15C331 6.716 324.284 0 316 0C307.716 0 301 6.716 301 15V42.153H271V15C271 6.716 264.284 0 256 0C247.716 0 241 6.716 241 15V42.153H211V15C211 6.716 204.284 0 196 0C187.716 0 181 6.716 181 15V42.153H151V15C151 6.716 144.284 0 136 0C127.716 0 121 6.716 121 15V42.153H91V15C91 6.716 84.284 0 76 0C67.716 0 61 6.716 61 15V497C61 505.284 67.716 512 76 512C84.284 512 91 505.284 91 497V469.847H121V497C121 505.284 127.716 512 136 512C144.284 512 151 505.284 151 497V469.847H181V497C181 505.284 187.716 512 196 512C204.284 512 211 505.284 211 497V469.847H241V497C241 505.284 247.716 512 256 512C264.284 512 271 505.284 271 497V469.847H301V497C301 505.284 307.716 512 316 512C324.284 512 331 505.284 331 497V469.847H361V497C361 505.284 367.716 512 376 512C384.284 512 391 505.284 391 497V469.847H421V497C421 505.284 427.716 512 436 512C444.284 512 451 505.284 451 497V15ZM91 72.153H421V439.847H91V72.153Z" fill="white"/>
<path d="M245.394 326.076C248.323 329.005 252.162 330.469 256 330.469C259.838 330.469 263.678 329.005 266.606 326.076L326.076 266.606C331.934 260.748 331.934 251.251 326.076 245.393L266.606 185.923C260.749 180.065 251.251 180.065 245.393 185.923L185.923 245.393C180.065 251.251 180.065 260.748 185.923 266.606L245.394 326.076ZM256 217.744L294.257 256L256 294.256L217.743 256L256 217.744Z" fill="white"/>
</svg>
