<svg width="512" height="512" viewBox="0 0 512 512" fill="none" xmlns="http://www.w3.org/2000/svg">
<path d="M327.846 174.174H341.328V204H311.821V283.87H401.835V204H371.328V174.174H385.811C411.149 174.174 431.762 153.564 431.762 128.23V0H401.762V128.229C401.762 137.021 394.607 144.173 385.811 144.173H371.328V0H341.328V144.174H327.846C319.05 144.174 311.894 137.022 311.894 128.23V0H281.894V128.229C281.894 153.563 302.508 174.174 327.846 174.174V174.174Z" fill="white"/>
<path d="M401.835 467V313.87H311.821V467C311.821 491.813 332.008 512 356.835 512C381.648 512 401.835 491.813 401.835 467Z" fill="white"/>
<path d="M219.379 473.458C232.996 451.823 240.806 424.277 240.806 397.881C240.806 371.196 232.809 348.472 217.681 332.167C206.381 319.988 191.573 312.071 175.022 309.162V278.086H205.529V197.955H115.515V278.086H145.022V309.344C128.874 312.392 114.435 320.234 103.363 332.167C88.235 348.472 80.238 371.196 80.238 397.881C80.238 424.277 88.048 451.823 101.665 473.458C117.307 498.313 138.21 512 160.521 512C182.832 512 203.736 498.313 219.379 473.458V473.458Z" fill="white"/>
<path d="M160.515 0C135.702 0 115.515 20.187 115.515 45V167.956H205.529V45C205.528 20.187 185.342 0 160.515 0V0Z" fill="white"/>
</svg>
