<svg width="492" height="492" viewBox="0 0 492 492" fill="none" xmlns="http://www.w3.org/2000/svg">
<g clip-path="url(#clip0)">
<path d="M152.491 261.671H16.6C7.424 261.671 0 269.1 0 278.267C0 287.432 7.423 294.864 16.6 294.864H152.491C161.664 294.864 169.088 287.432 169.088 278.267C169.087 269.1 161.664 261.671 152.491 261.671Z" fill="white"/>
<path d="M169.087 195.279H66.392C57.216 195.279 49.792 202.712 49.792 211.88C49.792 221.044 57.216 228.476 66.392 228.476H169.088C178.261 228.476 185.685 221.044 185.685 211.88C185.684 202.711 178.261 195.279 169.087 195.279Z" fill="white"/>
<path d="M185.684 128.891H116.184C107.008 128.891 99.585 136.322 99.585 145.487C99.585 154.654 107.008 162.087 116.184 162.087H185.684C194.86 162.087 202.284 154.654 202.284 145.487C202.284 136.322 194.86 128.891 185.684 128.891Z" fill="white"/>
<path d="M380.136 278.445C344.478 278.445 315.482 307.45 315.482 343.108C315.482 378.759 344.478 407.764 380.136 407.764C415.779 407.764 444.792 378.759 444.792 343.108C444.792 307.45 415.779 278.445 380.136 278.445ZM380.136 374.568C362.778 374.568 348.675 360.46 348.675 343.108C348.675 325.758 362.778 311.641 380.136 311.641C397.496 311.641 411.596 325.758 411.596 343.108C411.597 360.459 397.496 374.568 380.136 374.568Z" fill="white"/>
<path d="M448.294 212.031L437.889 211.942C433.235 211.902 429.104 208.986 427.514 204.616L386.473 91.262C384.884 86.864 380.704 83.936 376.018 83.936H261.573C256.256 83.936 251.685 87.706 250.679 92.925L205.199 326.582C204.584 329.843 205.426 333.213 207.534 335.772C209.64 338.335 212.786 339.817 216.107 339.817H290.911C292.692 291.987 331.884 253.548 380.136 253.548C428.388 253.548 467.582 291.986 469.364 339.817H480.579C486.725 339.817 491.7 334.841 491.7 328.709V255.787C491.7 231.756 472.331 212.226 448.294 212.031ZM387.301 177.499C386.086 179.11 384.19 180.067 382.164 180.067H266.905C265.009 180.067 263.225 179.242 262.01 177.796C260.795 176.362 260.275 174.458 260.585 172.603L270.195 114.884C270.715 111.799 273.39 109.53 276.518 109.53H365.194C368.03 109.53 370.541 111.4 371.336 114.133L388.324 171.851C388.89 173.788 388.516 175.879 387.301 177.499Z" fill="white"/>
</g>
<defs>
<clipPath id="clip0">
<rect width="491.7" height="491.7" fill="white"/>
</clipPath>
</defs>
</svg>
