<svg width="479" height="479" viewBox="0 0 479 479" fill="none" xmlns="http://www.w3.org/2000/svg">
<g clip-path="url(#clip0)">
<path d="M269.435 9.109C257.499 -2.827 238.059 -2.827 226.123 9.109L183.779 51.453L176.747 44.421C167.675 35.357 151.867 35.357 142.803 44.421L45.435 141.797C36.091 151.157 36.091 166.373 45.435 175.733L52.467 182.765L10.123 225.109C-1.82096 237.045 -1.82096 256.485 10.123 268.421C16.091 274.389 23.939 277.373 31.779 277.373C39.619 277.373 47.467 274.389 53.435 268.421L95.779 226.077L102.811 233.109C107.347 237.637 113.371 240.141 119.787 240.141C126.203 240.141 132.227 237.645 136.755 233.109L234.131 135.733C243.475 126.373 243.475 111.157 234.131 101.797L227.091 94.765L269.435 52.421C281.379 40.485 281.379 21.045 269.435 9.109ZM42.123 257.109C36.419 262.813 27.139 262.813 21.435 257.109C15.731 251.405 15.731 242.125 21.435 236.421L63.779 194.077L84.467 214.765L42.123 257.109ZM222.803 124.421L125.435 221.797C122.419 224.829 117.147 224.829 114.123 221.797L56.755 164.421C53.635 161.301 53.635 156.229 56.747 153.109L154.123 55.733C157.139 52.701 162.411 52.701 165.435 55.733L222.803 113.109C225.923 116.229 225.923 121.301 222.803 124.421ZM258.123 41.109L215.779 83.453L195.091 62.765L237.435 20.421C243.139 14.717 252.419 14.717 258.123 20.421C263.827 26.125 263.827 35.405 258.123 41.109Z" fill="white"/>
<path d="M459.067 158.741L421.435 121.109C418.315 117.997 413.267 117.981 410.139 121.093L282.139 248.429C280.627 249.933 279.779 251.965 279.779 254.093C279.779 256.221 280.619 258.261 282.123 259.757L300.563 278.197L152.715 426.501C146.947 432.269 143.779 439.941 143.779 448.157C143.779 465.029 157.507 478.765 174.387 478.765C182.579 478.765 190.283 475.573 196.075 469.765L343.843 321.477L362.123 339.757C363.683 341.317 365.731 342.101 367.779 342.101C369.819 342.101 371.859 341.325 373.419 339.773L458.955 254.709C471.811 241.909 478.899 224.877 478.923 206.741C478.947 188.605 471.891 171.565 459.067 158.741ZM184.747 458.469C181.979 461.245 178.299 462.765 174.387 462.765C166.331 462.765 159.779 456.213 159.779 448.109C159.779 444.213 161.291 440.557 164.043 437.797L311.875 289.509L332.531 310.165L184.747 458.469ZM447.667 243.365L367.795 322.805L355.139 310.149L381.443 283.749L370.107 272.453L343.819 298.829L323.163 278.173L373.435 227.741L362.107 216.445L311.851 266.861L299.099 254.109L415.755 138.053L447.747 170.045C457.547 179.845 462.931 192.869 462.915 206.717C462.899 220.565 457.483 233.597 447.667 243.365Z" fill="white"/>
<path d="M326.611 78.765C314.915 78.765 303.731 83.765 295.931 92.485L170.339 232.845L123.619 267.885C96.467 266.941 64.355 280.357 38.459 306.261C0.850986 343.861 -10.549 394.581 10.379 424.141C10.435 424.229 10.451 424.333 10.507 424.421C10.571 424.509 10.643 424.565 10.699 424.653C12.227 426.765 13.899 428.781 15.771 430.653C15.787 430.669 15.803 430.693 15.819 430.709C15.819 430.709 15.819 430.709 15.827 430.717C15.835 430.725 15.843 430.733 15.851 430.741C16.963 431.853 18.179 432.917 19.451 433.957C19.963 434.373 20.483 434.773 21.003 435.165C21.387 435.453 21.731 435.757 22.131 436.045C22.243 436.125 22.387 436.157 22.507 436.237C32.355 443.173 44.507 446.597 57.779 446.597C84.347 446.597 115.235 433.141 140.283 408.101C166.187 382.181 179.619 350.061 178.667 322.901L213.691 276.213L354.067 150.621C362.779 142.813 367.779 131.629 367.779 119.933C367.779 97.237 349.307 78.765 326.611 78.765ZM16.579 398.581C12.099 374.957 24.227 343.117 49.779 317.573C71.843 295.509 98.611 283.437 120.715 283.437C122.419 283.437 124.019 283.685 125.667 283.829C126.195 283.877 126.667 284.013 127.187 284.069C110.035 294.885 89.691 311.613 69.667 331.629C45.451 355.853 26.523 379.957 16.579 398.581ZM27.147 419.397L27.139 419.389C26.587 418.837 26.139 418.205 25.627 417.621C29.691 403.589 49.011 374.909 80.971 342.941C104.707 319.205 129.475 299.829 146.899 291.213C148.499 292.349 150.099 293.485 151.507 294.877C151.531 294.901 151.563 294.925 151.595 294.949C151.699 295.053 151.779 295.189 151.883 295.293C153.171 296.613 154.323 298.053 155.387 299.549C146.795 316.973 127.379 341.789 103.603 365.565C71.635 397.533 42.955 416.837 28.923 420.909C28.339 420.397 27.707 419.957 27.147 419.397ZM128.971 396.773C103.427 422.317 71.587 434.437 47.971 429.965C66.595 420.021 90.699 401.093 114.923 376.877C134.947 356.861 151.667 336.509 162.483 319.357C162.539 319.877 162.675 320.341 162.723 320.877C162.755 321.221 162.891 321.533 162.963 321.869C164.515 344.677 152.379 373.365 128.971 396.773ZM174.595 301.661C173.795 299.629 172.859 297.685 171.851 295.797C171.715 295.549 171.587 295.301 171.451 295.053C171.435 295.029 171.419 295.005 171.403 294.981C171.315 294.829 171.203 294.693 171.123 294.541C170.259 293.021 169.323 291.557 168.315 290.141C167.955 289.637 167.603 289.133 167.227 288.637C165.883 286.885 164.467 285.197 162.907 283.629C162.907 283.629 162.907 283.629 162.899 283.621C162.891 283.613 162.883 283.605 162.875 283.605C161.315 282.053 159.635 280.645 157.891 279.309C157.403 278.941 156.907 278.589 156.411 278.237C154.995 277.229 153.523 276.293 152.003 275.421C151.827 275.317 151.675 275.189 151.499 275.093C151.491 275.085 151.483 275.093 151.475 275.085C151.235 274.957 150.995 274.829 150.755 274.701C148.867 273.685 146.915 272.741 144.875 271.941L175.027 249.325L197.211 271.509L174.595 301.661ZM343.395 138.693L208.083 259.757L186.787 238.461L307.851 103.157C312.619 97.821 319.459 94.765 326.611 94.765C340.491 94.765 351.779 106.053 351.779 119.933C351.779 127.085 348.723 133.917 343.395 138.693Z" fill="white"/>
</g>
<defs>
<clipPath id="clip0">
<rect width="478.923" height="478.923" fill="white"/>
</clipPath>
</defs>
</svg>
