<svg width="512" height="512" viewBox="0 0 512 512" fill="none" xmlns="http://www.w3.org/2000/svg">
<g clip-path="url(#clip0)">
<path d="M458.038 283.971C445.498 267.714 445.369 245.771 457.72 229.367L486.939 190.562C489.904 186.626 490.747 181.487 489.197 176.809C487.648 172.133 483.902 168.515 479.174 167.126L433.936 153.852C414.234 148.072 401.233 130.395 401.585 109.865L402.415 61.2951C402.499 56.369 400.16 51.7151 396.157 48.8427C392.153 45.9703 386.995 45.2457 382.357 46.9011L337.957 62.7523C318.623 69.6571 297.711 62.9985 285.928 46.1815L258.049 6.39833C253.289 -0.391333 243.929 -2.03871 237.139 2.71926C232.977 5.63569 230.758 10.2826 230.751 15.0065H230.741C230.741 15.0065 230.741 27.4839 230.742 48.4004L214.641 32.2989C208.779 26.437 199.273 26.437 193.41 32.2989C187.547 38.1608 187.547 47.6667 193.41 53.5296L230.743 90.8628C230.743 103.651 230.744 117.633 230.744 132.472L200.933 102.661C195.071 96.7987 185.565 96.7987 179.702 102.661C173.839 108.523 173.839 118.028 179.702 123.891L230.745 174.935C230.745 192.775 230.746 211.28 230.746 230.001L183.409 202.671L164.576 132.385C162.429 124.376 154.196 119.629 146.19 121.77C138.181 123.916 133.428 132.147 135.574 140.156L146.635 181.439L110.534 160.596L96.7477 109.144C94.6009 101.135 86.366 96.3864 78.3613 98.5282C70.3527 100.675 65.5997 108.906 67.7455 116.915L73.7605 139.365L44.5592 122.506C37.3782 118.359 28.1965 120.821 24.0521 128.001C19.9056 135.182 22.3656 144.363 29.5466 148.508L58.4598 165.201L36.4644 171.095C28.4557 173.24 23.7038 181.472 25.8496 189.481C27.6471 196.188 33.7121 200.611 40.3406 200.611C41.6267 200.611 42.9348 200.444 44.2369 200.096L95.2324 186.43L131.266 207.235L90.5455 218.146C82.5358 220.293 77.7839 228.525 79.9297 236.533C81.7272 243.24 87.7922 247.664 94.4207 247.664C95.7068 247.664 97.0149 247.496 98.317 247.148L168.04 228.466L215.728 255.998L168.395 283.326L98.1108 264.494C90.1061 262.355 81.8693 267.1 79.7235 275.108C77.5777 283.117 82.3297 291.35 90.3393 293.496L131.621 304.558L95.5247 325.401L44.0717 311.614C36.0671 309.475 27.8302 314.22 25.6844 322.23C23.5386 330.237 28.2906 338.47 36.2993 340.616L58.751 346.632L29.5496 363.491C22.3686 367.637 19.9086 376.817 24.0551 383.998C26.8354 388.815 31.8816 391.507 37.0699 391.507C39.617 391.507 42.1982 390.858 44.5622 389.493L73.4733 372.801L67.5804 394.795C65.4346 402.804 70.1875 411.036 78.1962 413.182C79.4973 413.53 80.8034 413.697 82.0915 413.697C88.719 413.697 94.786 409.273 96.5825 402.566L110.247 351.57L146.281 330.766L135.37 371.488C133.224 379.497 137.977 387.728 145.986 389.874C147.287 390.222 148.593 390.39 149.881 390.39C156.509 390.39 162.576 385.966 164.372 379.258L183.055 309.535L230.748 281.999C230.748 300.578 230.749 318.942 230.749 336.651L179.29 388.11C173.428 393.972 173.427 403.478 179.29 409.34C182.221 412.273 186.063 413.738 189.904 413.738C193.746 413.738 197.589 412.272 200.519 409.34L230.749 379.11C230.749 393.978 230.75 407.986 230.75 420.796L193.075 458.471C187.212 464.333 187.212 473.839 193.075 479.702C196.006 482.634 199.849 484.1 203.69 484.1C207.531 484.1 211.374 482.634 214.305 479.702L230.751 463.255C230.752 484.15 230.752 496.616 230.752 496.625C230.638 501.535 232.923 506.402 237.281 509.381C239.872 511.152 242.82 512 245.738 512C250.529 512 255.238 509.712 258.145 505.458L284.748 466.535C296.334 449.585 317.167 442.682 336.581 449.36L382.517 465.158C387.175 466.759 392.325 465.975 396.295 463.055C400.264 460.136 402.548 455.454 402.406 450.529L401.05 403.404C400.459 382.88 413.254 365.053 432.888 359.042L479.337 344.823C484.048 343.38 487.752 339.717 489.247 335.023C490.741 330.329 489.839 325.2 486.829 321.298L458.038 283.971ZM260.767 167.182C303.314 174.351 335.83 211.446 335.83 255.999C335.83 300.149 303.182 337.547 260.767 344.801C260.767 289.78 260.767 222.341 260.767 167.182ZM424.103 330.334C391.381 340.351 370.057 370.063 371.04 404.269L371.772 429.71L346.348 420.967C314.425 409.989 280.223 421.047 260.766 448.468C260.766 448.468 260.766 418.449 260.766 375.165C287.644 371.821 312.456 359.574 331.63 339.962C353.7 317.389 365.854 287.57 365.854 256C365.854 194.861 319.931 144.247 260.766 136.837C260.766 93.0496 260.766 62.6012 260.766 62.5982C260.765 63.4059 262.743 65.3305 263.251 65.991C274.659 80.8654 291.794 91.5113 310.462 94.5559C322.91 96.5865 335.94 95.1964 347.929 91.07C355.992 88.2946 363.992 85.3382 372.021 82.4718L371.562 109.352C370.976 143.569 392.644 173.029 425.481 182.664L449.904 189.83L433.732 211.308C413.15 238.645 413.362 275.216 434.262 302.311L449.809 322.465L424.103 330.334Z" fill="white"/>
</g>
<defs>
<clipPath id="clip0">
<rect width="512" height="512" fill="white"/>
</clipPath>
</defs>
</svg>
