<svg width="512" height="512" viewBox="0 0 512 512" fill="none" xmlns="http://www.w3.org/2000/svg">
<path d="M40.754 482H70.754V512H40.754V482Z" fill="white"/>
<path d="M117.754 482H147.754V512H117.754V482Z" fill="white"/>
<path d="M194.754 482H224.754V512H194.754V482Z" fill="white"/>
<path d="M52.754 417H82.754V447H52.754V417Z" fill="white"/>
<path d="M117.754 417H147.754V447H117.754V417Z" fill="white"/>
<path d="M182.754 417H212.754V447H182.754V417Z" fill="white"/>
<path d="M457.75 338.5H440.25V177.5C440.25 79.626 360.624 0 262.75 0C164.876 0 85.25 79.626 85.25 177.5V219.099C60.443 233.283 42.54 258.212 37.925 287.5H6.75V335C6.75 361.191 28.059 382.5 54.25 382.5H211.25C237.441 382.5 258.75 361.191 258.75 335V287.5H227.575C222.96 258.212 205.056 233.283 180.25 219.099V177.5C180.25 132.009 217.259 95 262.75 95C308.24 95 345.25 132.009 345.25 177.5V512H440.25V433.5H457.75C483.941 433.5 505.25 412.191 505.25 386C505.25 359.809 483.941 338.5 457.75 338.5ZM228.75 335C228.75 344.649 220.899 352.5 211.25 352.5H54.25C44.601 352.5 36.75 344.649 36.75 335V317.5H228.75V335ZM68.49 287.5C75.302 258.313 101.518 236.5 132.75 236.5C163.982 236.5 190.198 258.313 197.01 287.5H68.49ZM410.25 482H375.25V177.5C375.25 115.467 324.782 65 262.75 65C200.717 65 150.25 115.467 150.25 177.5V208.104C144.574 207.054 138.726 206.5 132.75 206.5C126.774 206.5 120.926 207.054 115.25 208.104V177.5C115.25 96.168 181.418 30 262.75 30C344.082 30 410.25 96.168 410.25 177.5V482ZM457.75 403.5H440.25V368.5H457.75C467.399 368.5 475.25 376.351 475.25 386C475.25 395.649 467.399 403.5 457.75 403.5Z" fill="white"/>
</svg>
