<svg width="468" height="512" viewBox="0 0 468 512" fill="none" xmlns="http://www.w3.org/2000/svg">
<path d="M436.038 283.971C423.498 267.714 423.369 245.771 435.72 229.367L464.939 190.562C467.904 186.626 468.747 181.487 467.197 176.809C465.648 172.133 461.902 168.515 457.174 167.126L411.936 153.852C392.234 148.072 379.233 130.395 379.585 109.865L380.415 61.2951C380.499 56.369 378.16 51.7151 374.157 48.8427C370.153 45.9703 364.995 45.2457 360.357 46.9011L315.957 62.7523C296.623 69.6571 275.711 62.9985 263.928 46.1815L236.049 6.39833C231.289 -0.391333 221.929 -2.03871 215.139 2.71926C210.977 5.63569 208.758 10.2826 208.751 15.0065H208.741C208.741 15.0065 208.741 27.4839 208.742 48.4004L192.641 32.2989C186.779 26.437 177.273 26.437 171.41 32.2989C165.547 38.1608 165.547 47.6667 171.41 53.5296L208.743 90.8628C208.743 103.651 208.744 117.633 208.744 132.472L178.933 102.661C173.071 96.7987 163.565 96.7987 157.702 102.661C151.839 108.523 151.839 118.028 157.702 123.891L208.745 174.935C208.745 192.775 208.746 211.28 208.746 230.001L161.409 202.671L142.576 132.385C140.429 124.376 132.196 119.629 124.19 121.77C116.181 123.916 111.428 132.147 113.574 140.156L124.635 181.439L88.5342 160.596L74.7477 109.144C72.6009 101.135 64.366 96.3864 56.3613 98.5282C48.3527 100.675 43.5997 108.906 45.7455 116.915L51.7605 139.365L22.5592 122.506C15.3782 118.359 6.19651 120.821 2.05205 128.001C-2.0944 135.182 0.365647 144.363 7.54664 148.508L36.4598 165.201L14.4644 171.095C6.45573 173.24 1.70376 181.472 3.84955 189.481C5.64705 196.188 11.7121 200.611 18.3406 200.611C19.6267 200.611 20.9348 200.444 22.2369 200.096L73.2324 186.43L109.266 207.235L68.5455 218.146C60.5358 220.293 55.7839 228.525 57.9297 236.533C59.7272 243.24 65.7922 247.664 72.4207 247.664C73.7068 247.664 75.0149 247.496 76.317 247.148L146.04 228.466L193.728 255.998L146.395 283.326L76.1108 264.494C68.1061 262.355 59.8693 267.1 57.7235 275.108C55.5777 283.117 60.3297 291.35 68.3393 293.496L109.621 304.558L73.5247 325.401L22.0717 311.614C14.0671 309.475 5.83021 314.22 3.68442 322.23C1.53863 330.237 6.29059 338.47 14.2993 340.616L36.751 346.632L7.54964 363.491C0.368649 367.637 -2.0914 376.817 2.05506 383.998C4.83538 388.815 9.88159 391.507 15.0699 391.507C17.617 391.507 20.1982 390.858 22.5622 389.493L51.4733 372.801L45.5804 394.795C43.4346 402.804 48.1875 411.036 56.1962 413.182C57.4973 413.53 58.8034 413.697 60.0915 413.697C66.719 413.697 72.786 409.273 74.5825 402.566L88.2469 351.57L124.281 330.766L113.37 371.488C111.224 379.497 115.977 387.728 123.986 389.874C125.287 390.222 126.593 390.39 127.881 390.39C134.509 390.39 140.576 385.966 142.372 379.258L161.055 309.535L208.748 281.999C208.748 300.578 208.749 318.942 208.749 336.651L157.29 388.11C151.428 393.972 151.427 403.478 157.29 409.34C160.221 412.273 164.063 413.738 167.904 413.738C171.746 413.738 175.589 412.272 178.519 409.34L208.749 379.11C208.749 393.978 208.75 407.986 208.75 420.796L171.075 458.471C165.212 464.333 165.212 473.839 171.075 479.702C174.006 482.634 177.849 484.1 181.69 484.1C185.531 484.1 189.374 482.634 192.305 479.702L208.751 463.255C208.752 484.15 208.752 496.616 208.752 496.625C208.638 501.535 210.923 506.402 215.281 509.381C217.872 511.152 220.82 512 223.738 512C228.529 512 233.238 509.712 236.145 505.458L262.748 466.535C274.334 449.585 295.167 442.682 314.581 449.36L360.517 465.158C365.175 466.759 370.325 465.975 374.295 463.055C378.264 460.136 380.548 455.454 380.406 450.529L379.05 403.404C378.459 382.88 391.254 365.053 410.888 359.042L457.337 344.823C462.048 343.38 465.752 339.717 467.247 335.023C468.741 330.329 467.839 325.2 464.829 321.298L436.038 283.971ZM238.767 167.182C281.314 174.351 313.83 211.446 313.83 255.999C313.83 300.149 281.182 337.547 238.767 344.801C238.767 289.78 238.767 222.341 238.767 167.182ZM402.103 330.334C369.381 340.351 348.057 370.063 349.04 404.269L349.772 429.71L324.348 420.967C292.425 409.989 258.223 421.047 238.766 448.468C238.766 448.468 238.766 418.449 238.766 375.165C265.644 371.821 290.456 359.574 309.63 339.962C331.7 317.389 343.854 287.57 343.854 256C343.854 194.861 297.931 144.247 238.766 136.837C238.766 93.0496 238.766 62.6012 238.766 62.5982C238.765 63.4059 240.743 65.3305 241.251 65.991C252.659 80.8654 269.794 91.5113 288.462 94.5559C300.91 96.5865 313.94 95.1964 325.929 91.07C333.992 88.2946 341.992 85.3382 350.021 82.4718L349.562 109.352C348.976 143.569 370.644 173.029 403.481 182.664L427.904 189.83L411.732 211.308C391.15 238.645 391.362 275.216 412.262 302.311L427.809 322.465L402.103 330.334Z" fill="white"/>
</svg>
