<svg width="512" height="512" viewBox="0 0 512 512" fill="none" xmlns="http://www.w3.org/2000/svg">
<path d="M256 0C147.925 0 60 87.925 60 196V512H452V196C452 87.925 364.075 0 256 0ZM422 482H90V196C90 104.467 164.467 30 256 30C347.533 30 422 104.467 422 196V482Z" fill="white"/>
<path d="M256 60C181.009 60 120 121.009 120 196V452H392V196C392 121.009 330.991 60 256 60ZM271 91.066C289.037 93.632 305.628 100.75 319.562 111.225L271 159.787V91.066ZM241 159.787L192.438 111.225C206.372 100.75 222.963 93.633 241 91.066V159.787ZM219.787 181H151.066C153.632 162.963 160.75 146.372 171.225 132.438L219.787 181ZM241 211V301.5H150V211H241ZM271 211H362V301.5H271V211ZM292.213 181L340.775 132.438C351.249 146.373 358.367 162.963 360.934 181H292.213ZM150 331.5H241V422H150V331.5ZM271 422V331.5H362V422H271Z" fill="white"/>
</svg>
